<svg width="1200" height="900" viewBox="0 0 1200 900" fill="none" xmlns="http://www.w3.org/2000/svg">
  <rect width="1200" height="900" rx="36" fill="#F2E7D7"/>
  <path d="M265 610C320 470 430 385 590 360C735 336 860 390 940 480C1015 565 1005 660 910 710C820 756 670 750 540 726C420 702 320 670 265 610Z" fill="#E7D6C2"/>
  <path d="M450 520C515 455 600 420 695 420C792 420 870 460 920 520" stroke="#C77C51" stroke-width="14" stroke-linecap="round"/>
  <circle cx="560" cy="520" r="10" fill="#2F2118"/>
  <circle cx="715" cy="520" r="10" fill="#2F2118"/>
  <path d="M505 600C575 655 705 655 775 600" stroke="#2F2118" stroke-opacity="0.5" stroke-width="12" stroke-linecap="round"/>
  <text x="60" y="120" fill="#2F2118" fill-opacity="0.65" font-family="ui-sans-serif, system-ui" font-size="44" letter-spacing="0.02em">Equivvo — horse placeholder</text>
</svg>
